{"title":"The Hunger Games 2012 TS XViD NEW SOURCE DTRG","uid":7142754,"size":1654720098,"categoryP":"video","categoryS":"movies","magnet":"?xt=urn:btih:c21feb116543c23b34283ce4228828f9e5e00e68&amp;dn=The+Hunger+Games+2012+TS+XViD+NEW+SOURCE+DTRG&amp;tr=udp%3A%2F%2Ftracker.openbittorrent.com%3A80&amp;tr=udp%3A%2F%2Fopen.demonii.com%3A1337&amp;tr=udp%3A%2F%2Ftracker.coppersurfer.tk%3A6969&amp;tr=udp%3A%2F%2Fexodus.desync.com%3A6969","seeders":6,"leechers":0,"uploader":"HeroMaster","files":-1,"time":1333054993,"description":"The Hunger Games 2012 V2 TS XViD NEW SOURCE DTRG\n\nFormat                                   : AVI\nFormat/Info                              : Audio Video Interleave\nFile size                                : 1.53 GiB\nDuration                                 : 2h 13mn\nOverall bit rate                         : 1 644 Kbps\nWriting library                          : VirtualDubMod build 2540/release\n\nVideo\nID                                       : 0\nFormat                                   : MPEG-4 Visual\nFormat profile                           : Advanced Simple@L5\nFormat settings, BVOP                    : 2\nFormat settings, QPel                    : No\nFormat settings, GMC                     : No warppoints\nFormat settings, Matrix                  : Default (H.263)\nMuxing mode                              : Packed bitstream\nCodec ID                                 : XVID\nCodec ID/Hint                            : XviD\nDuration                                 : 2h 13mn\nBit rate                                 : 1 507 Kbps\nWidth                                    : 640 pixels\nHeight                                   : 272 pixels\nDisplay aspect ratio                     : 2.35:1\nFrame rate                               : 25.000 fps\nColor space                              : YUV\nChroma subsampling                       : 4:2:0\nBit depth                                : 8 bits\nScan type                                : Progressive\nCompression mode                         : Lossy\nBits/(Pixel*Frame)                       : 0.346\nStream size                              : 1.40 GiB (92%)\nWriting library                          : XviD 64\n\nAudio\nID                                       : 1\nFormat                                   : MPEG Audio\nFormat version                           : Version 1\nFormat profile                           : Layer 3\nMode                                     : Joint stereo\nMode extension                           : MS Stereo\nCodec ID                                 : 55\nCodec ID/Hint                            : MP3\nDuration                                 : 2h 13mn\nBit rate mode                            : Constant\nBit rate                                 : 128 Kbps\nChannel(s)                               : 2 channels\nSampling rate                            : 44.1 KHz\nCompression mode                         : Lossy\nDelay relative to video                  : 5ms\nStream size                              : 122 MiB (8%)\nAlignment                                : Split accross interleaves\nInterleave, duration                     : 40 ms (1.00 video frame)\nInterleave, preload duration             : 500 ms\n\n &lt;a href=&quot;\nhttp://www.imdb.com/title/tt1392170/&quot; rel=&quot;nofollow&quot; target=&quot;_NEW&quot;&gt;\nhttp://www.imdb.com/title/tt1392170/&lt;/a&gt;\n\nSet in a future where the Capitol selects a boy and girl from the twelve districts to fight to the death on live television, Katniss Everdeen volunteers to take her younger sister's place for the latest match.\n\n\nSource Used:\n\n\nVideo ......... Az.ehezok.viadala.2012.CAM.SUBBED.XviD-BEOWULF ...Thanks\n\nAudio....................ILLUMINATI.....................Thanks\n\n\nPoster:\n\n &lt;a href=&quot;\nhttp://i.imgur.com/SJy9a.jpg&quot; rel=&quot;nofollow&quot; target=&quot;_NEW&quot;&gt;\nhttp://i.imgur.com/SJy9a.jpg&lt;/a&gt;\n\n\nScreenshots:\n\n &lt;a href=&quot;\nhttp://i.imgur.com/Kcmht.png&quot; rel=&quot;nofollow&quot; target=&quot;_NEW&quot;&gt;\nhttp://i.imgur.com/Kcmht.png&lt;/a&gt;\n\n &lt;a href=&quot;\nhttp://i.imgur.com/CTksr.png&quot; rel=&quot;nofollow&quot; target=&quot;_NEW&quot;&gt;\nhttp://i.imgur.com/CTksr.png&lt;/a&gt;\n\n &lt;a href=&quot;\nhttp://i.imgur.com/d3Odf.png&quot; rel=&quot;nofollow&quot; target=&quot;_NEW&quot;&gt;\nhttp://i.imgur.com/d3Odf.png&lt;/a&gt;\n\n\nENJOY!","torrent":{"xt":"urn:btih:c21feb116543c23b34283ce4228828f9e5e00e68","amp;dn":"The+Hunger+Games+2012+TS+XViD+NEW+SOURCE+DTRG","amp;tr":["udp%3A%2F%2Ftracker.openbittorrent.com%3A80","udp%3A%2F%2Fopen.demonii.com%3A1337","udp%3A%2F%2Ftracker.coppersurfer.tk%3A6969","udp%3A%2F%2Fexodus.desync.com%3A6969"],"infoHash":"c21feb116543c23b34283ce4228828f9e5e00e68","infoHashBuffer":{"type":"Buffer","data":[194,31,235,17,101,67,194,59,52,40,60,228,34,136,40,249,229,224,14,104]},"announce":[],"urlList":[]}}